<?xml version="1.0" encoding="UTF-8" standalone="no"?><!-- Generator: Gravit.io --><svg xmlns="http://www.w3.org/2000/svg" xmlns:xlink="http://www.w3.org/1999/xlink" style="isolation:isolate" viewBox="0 0 120 120" width="120pt" height="120pt"><path d=" M 59.333 51.166 C 58.266 51.172 57.277 50.606 56.742 49.682 L 53.048 43.368 C 52.289 42.069 50.949 41.183 49.373 40.936 C 39.894 39.454 33.003 31.086 33.346 21.474 C 33.704 11.379 42.416 3.166 52.765 3.166 L 65.902 3.166 C 76.251 3.166 84.963 11.379 85.321 21.474 C 85.664 31.085 78.772 39.453 69.293 40.936 C 67.718 41.183 66.378 42.069 65.619 43.368 L 61.925 49.681 C 61.39 50.605 60.401 51.172 59.333 51.166 Z " id="top-bubble" fill="rgb(255,255,0)"/><path d=" M 49.333 20.165 C 49.333 18.509 50.677 17.165 52.333 17.165 C 53.989 17.165 55.333 18.509 55.333 20.165 C 55.333 21.82 53.989 23.165 52.333 23.165 C 50.677 23.165 49.333 21.82 49.333 20.165 L 49.333 20.165 L 49.333 20.165 L 49.333 20.165 Z  M 63.333 20.165 C 63.333 18.509 64.677 17.165 66.333 17.165 C 67.989 17.165 69.333 18.509 69.333 20.165 C 69.333 21.82 67.989 23.165 66.333 23.165 C 64.677 23.165 63.333 21.82 63.333 20.165 L 63.333 20.165 L 63.333 20.165 Z  M 63.333 25.167 L 55.333 25.167 C 54.781 25.167 54.333 25.613 54.333 26.165 L 54.333 27.165 C 54.333 29.926 56.571 32.165 59.333 32.165 C 62.094 32.165 64.333 29.926 64.333 27.165 L 64.333 26.165 C 64.333 25.9 64.227 25.646 64.04 25.459 C 63.852 25.271 63.598 25.166 63.333 25.167 L 63.333 25.167 L 63.333 25.167 Z  M 52.765 5.167 C 43.48 5.167 35.665 12.515 35.344 21.545 C 35.038 30.147 41.202 37.634 49.683 38.96 C 51.856 39.301 53.711 40.539 54.775 42.358 L 58.469 48.671 C 58.73 49.119 59.16 49.167 59.333 49.167 C 59.506 49.167 59.936 49.119 60.197 48.671 L 63.891 42.358 C 64.954 40.539 66.81 39.3 68.982 38.96 C 77.463 37.633 83.628 30.147 83.322 21.545 C 83.001 12.515 75.187 5.167 65.901 5.167 L 52.765 5.167 L 52.765 5.167 L 52.765 5.167 L 52.765 5.167 L 52.765 5.167 Z  M 59.333 51.167 C 58.266 51.172 57.277 50.606 56.742 49.683 L 53.048 43.369 C 52.289 42.07 50.949 41.184 49.373 40.937 C 39.894 39.455 33.003 31.087 33.346 21.475 C 33.704 11.38 42.416 3.167 52.765 3.167 L 65.902 3.167 C 76.251 3.167 84.963 11.38 85.321 21.475 C 85.664 31.086 78.772 39.454 69.293 40.937 C 67.718 41.184 66.378 42.07 65.619 43.369 L 61.925 49.682 C 61.39 50.606 60.401 51.172 59.333 51.167 L 59.333 51.167 L 59.333 51.167 L 59.333 51.167 L 59.333 51.167 Z  M 53.333 7.167 L 65.333 7.167 L 65.333 9.167 L 53.333 9.167 L 53.333 7.167 Z " fill-rule="evenodd" id="top-bubble" fill="rgb(26,109,255)"/><g id="bottom-bubble"><path d=" M 59.334 69.166 C 60.401 69.161 61.39 69.727 61.925 70.65 L 65.619 76.964 C 66.378 78.263 67.718 79.149 69.294 79.396 C 78.773 80.878 85.664 89.246 85.321 98.858 C 84.963 108.953 76.251 117.166 65.902 117.166 L 52.765 117.166 C 42.416 117.166 33.704 108.953 33.346 98.858 C 33.003 89.247 39.895 80.879 49.374 79.396 C 50.949 79.149 52.289 78.263 53.048 76.964 L 56.742 70.651 C 57.277 69.728 58.266 69.161 59.334 69.166 Z " id="bottom-bubble" fill="rgb(255,255,0)"/><linearGradient id="_lgradient_48" x1="0.49999040072657747" y1="-0.010416657958722125" x2="0.4999904007265773" y2="1.0156658176072415" gradientTransform="matrix(-52,0,0,-48,85.333,117.166)" gradientUnits="userSpaceOnUse"><stop offset="0%" stop-opacity="1" style="stop-color:rgb(26,109,255)"/><stop offset="100%" stop-opacity="1" style="stop-color:rgb(200,34,255)"/></linearGradient><path d=" M 59.334 69.166 C 60.401 69.161 61.39 69.727 61.925 70.65 L 65.619 76.964 C 66.378 78.263 67.718 79.149 69.294 79.396 C 78.773 80.878 85.664 89.246 85.321 98.858 C 84.963 108.953 76.251 117.166 65.902 117.166 L 52.765 117.166 C 42.416 117.166 33.704 108.953 33.346 98.858 C 33.003 89.247 39.895 80.879 49.374 79.396 C 50.949 79.149 52.289 78.263 53.048 76.964 L 56.742 70.651 C 57.277 69.728 58.266 69.161 59.334 69.166 Z  M 65.902 115.166 C 75.187 115.166 83.002 107.818 83.323 98.788 C 83.629 90.186 77.465 82.699 68.984 81.373 C 66.811 81.032 64.956 79.794 63.892 77.975 L 60.198 71.662 C 59.937 71.214 59.507 71.166 59.334 71.166 C 59.161 71.166 58.731 71.214 58.47 71.662 L 54.776 77.975 C 53.713 79.794 51.857 81.033 49.685 81.373 C 41.204 82.7 35.039 90.186 35.345 98.788 C 35.666 107.818 43.48 115.166 52.766 115.166 L 65.902 115.166 Z " id="Compound Path" fill="url(#_lgradient_48)"/><linearGradient id="_lgradient_49" x1="0.5" y1="-0.08300000000000018" x2="0.4999999999999998" y2="1.0836666666666668" gradientTransform="matrix(-6,0,0,-6,69.334,103.168)" gradientUnits="userSpaceOnUse"><stop offset="0%" stop-opacity="1" style="stop-color:rgb(109,199,255)"/><stop offset="100%" stop-opacity="1" style="stop-color:rgb(230,171,255)"/></linearGradient><path d=" M 69.334 100.168 C 69.334 101.824 67.99 103.168 66.334 103.168 C 64.678 103.168 63.334 101.824 63.334 100.168 C 63.334 98.513 64.678 97.168 66.334 97.168 C 67.99 97.168 69.334 98.513 69.334 100.168 Z " id="Ellipse" fill="url(#_lgradient_49)"/><linearGradient id="_lgradient_50" x1="0.5" y1="-0.08300000000000018" x2="0.4999999999999998" y2="1.0836666666666668" gradientTransform="matrix(-6,0,0,-6,55.334,103.168)" gradientUnits="userSpaceOnUse"><stop offset="0%" stop-opacity="1" style="stop-color:rgb(109,199,255)"/><stop offset="100%" stop-opacity="1" style="stop-color:rgb(230,171,255)"/></linearGradient><path d=" M 55.334 100.168 C 55.334 101.824 53.99 103.168 52.334 103.168 C 50.678 103.168 49.334 101.824 49.334 100.168 C 49.334 98.513 50.678 97.168 52.334 97.168 C 53.99 97.168 55.334 98.513 55.334 100.168 Z " id="Ellipse" fill="url(#_lgradient_50)"/><linearGradient id="_lgradient_51" x1="0.5" y1="-0.05358666353125585" x2="0.4999999999999998" y2="1.0538725311476025" gradientTransform="matrix(-10,0,0,-6.998,64.334,95.166)" gradientUnits="userSpaceOnUse"><stop offset="0%" stop-opacity="1" style="stop-color:rgb(109,199,255)"/><stop offset="100%" stop-opacity="1" style="stop-color:rgb(230,171,255)"/></linearGradient><path d=" M 55.334 95.166 L 63.334 95.166 C 63.886 95.166 64.334 94.72 64.334 94.168 L 64.334 93.168 C 64.334 90.407 62.096 88.168 59.334 88.168 C 56.573 88.168 54.334 90.407 54.334 93.168 L 54.334 94.168 C 54.334 94.433 54.44 94.687 54.627 94.875 C 54.815 95.062 55.069 95.167 55.334 95.166 L 55.334 95.166 Z " id="Path" fill="url(#_lgradient_51)"/><linearGradient id="_lgradient_52" x1="0.5" y1="-2.25" x2="0.4999999999999955" y2="22.376" gradientTransform="matrix(12,0,0,2,53.334,111.166)" gradientUnits="userSpaceOnUse"><stop offset="0%" stop-opacity="1" style="stop-color:rgb(26,109,255)"/><stop offset="100%" stop-opacity="1" style="stop-color:rgb(200,34,255)"/></linearGradient><rect x="53.334" y="111.166" width="12" height="2" transform="matrix(-1,0,0,-1,118.668,224.333)" id="Rectangle" fill="url(#_lgradient_52)"/></g><g id="right-bubble"><path d=" M 66.334 60.166 C 66.328 59.099 66.894 58.11 67.818 57.575 L 74.132 53.881 C 75.431 53.122 76.317 51.782 76.564 50.206 C 78.046 40.727 86.414 33.836 96.026 34.179 C 106.121 34.537 114.334 43.249 114.334 53.598 L 114.334 66.735 C 114.334 77.084 106.121 85.796 96.026 86.154 C 86.415 86.497 78.047 79.605 76.564 70.126 C 76.317 68.551 75.431 67.211 74.132 66.452 L 67.819 62.758 C 66.895 62.223 66.328 61.234 66.334 60.166 Z " id="right-bubble" fill="rgb(255,255,0)"/><path d=" M 66.334 60.166 C 66.328 59.099 66.894 58.11 67.818 57.575 L 74.132 53.881 C 75.431 53.122 76.317 51.782 76.564 50.206 C 78.046 40.727 86.414 33.836 96.026 34.179 C 106.121 34.537 114.334 43.249 114.334 53.598 L 114.334 66.735 C 114.334 77.084 106.121 85.796 96.026 86.154 C 86.415 86.497 78.047 79.605 76.564 70.126 C 76.317 68.551 75.431 67.211 74.132 66.452 L 67.819 62.758 C 66.895 62.223 66.328 61.234 66.334 60.166 Z " id="right-bubble" fill="rgb(255,255,0)"/><linearGradient id="_lgradient_53" x1="0.49999040072657747" y1="-0.010416657958722125" x2="0.4999904007265773" y2="1.0156658176072415" gradientTransform="matrix(0,52,-48,0,114.333,34.167)" gradientUnits="userSpaceOnUse"><stop offset="0%" stop-opacity="1" style="stop-color:rgb(26,109,255)"/><stop offset="100%" stop-opacity="1" style="stop-color:rgb(200,34,255)"/></linearGradient><path d=" M 66.333 60.166 C 66.328 59.099 66.894 58.11 67.817 57.575 L 74.131 53.881 C 75.43 53.122 76.316 51.782 76.563 50.206 C 78.045 40.727 86.413 33.836 96.025 34.179 C 106.12 34.537 114.333 43.249 114.333 53.598 L 114.333 66.735 C 114.333 77.084 106.12 85.796 96.025 86.154 C 86.414 86.497 78.046 79.605 76.563 70.126 C 76.316 68.551 75.43 67.211 74.131 66.452 L 67.818 62.758 C 66.894 62.223 66.328 61.234 66.333 60.166 Z  M 112.333 53.598 C 112.333 44.313 104.985 36.498 95.955 36.177 C 87.353 35.871 79.866 42.035 78.54 50.516 C 78.199 52.689 76.961 54.544 75.142 55.608 L 68.829 59.302 C 68.381 59.563 68.333 59.993 68.333 60.166 C 68.333 60.339 68.381 60.769 68.829 61.03 L 75.142 64.724 C 76.961 65.787 78.2 67.643 78.54 69.815 C 79.867 78.296 87.353 84.461 95.955 84.155 C 104.985 83.834 112.333 76.02 112.333 66.734 L 112.333 53.598 Z " id="Compound Path" fill="url(#_lgradient_53)"/><linearGradient id="_lgradient_54" x1="0.5" y1="-0.08300000000000018" x2="0.4999999999999998" y2="1.0836666666666668" gradientTransform="matrix(0,6,-6,0,100.335,50.166)" gradientUnits="userSpaceOnUse"><stop offset="0%" stop-opacity="1" style="stop-color:rgb(109,199,255)"/><stop offset="100%" stop-opacity="1" style="stop-color:rgb(230,171,255)"/></linearGradient><path d=" M 97.335 50.166 C 98.991 50.166 100.335 51.51 100.335 53.166 C 100.335 54.822 98.991 56.166 97.335 56.166 C 95.68 56.166 94.335 54.822 94.335 53.166 C 94.335 51.51 95.68 50.166 97.335 50.166 Z " id="Ellipse" fill="url(#_lgradient_54)"/><linearGradient id="_lgradient_55" x1="0.5" y1="-0.08300000000000018" x2="0.4999999999999998" y2="1.0836666666666668" gradientTransform="matrix(0,6,-6,0,100.335,64.166)" gradientUnits="userSpaceOnUse"><stop offset="0%" stop-opacity="1" style="stop-color:rgb(109,199,255)"/><stop offset="100%" stop-opacity="1" style="stop-color:rgb(230,171,255)"/></linearGradient><path d=" M 97.335 64.166 C 98.991 64.166 100.335 65.51 100.335 67.166 C 100.335 68.822 98.991 70.166 97.335 70.166 C 95.68 70.166 94.335 68.822 94.335 67.166 C 94.335 65.51 95.68 64.166 97.335 64.166 Z " id="Ellipse" fill="url(#_lgradient_55)"/><linearGradient id="_lgradient_56" x1="0.5" y1="-0.05358666353125585" x2="0.4999999999999998" y2="1.0538725311476025" gradientTransform="matrix(0,10,-6.998,0,92.333,55.166)" gradientUnits="userSpaceOnUse"><stop offset="0%" stop-opacity="1" style="stop-color:rgb(109,199,255)"/><stop offset="100%" stop-opacity="1" style="stop-color:rgb(230,171,255)"/></linearGradient><path d=" M 92.333 64.166 L 92.333 56.166 C 92.333 55.614 91.887 55.166 91.335 55.166 L 90.335 55.166 C 87.574 55.166 85.335 57.405 85.335 60.166 C 85.335 62.928 87.574 65.166 90.335 65.166 L 91.335 65.166 C 91.6 65.166 91.854 65.06 92.041 64.873 C 92.229 64.685 92.334 64.431 92.333 64.166 L 92.333 64.166 Z " id="Path" fill="url(#_lgradient_56)"/><linearGradient id="_lgradient_57" x1="0.5" y1="-2.25" x2="0.4999999999999955" y2="22.376" gradientTransform="matrix(12,0,0,2,103.333,59.166)" gradientUnits="userSpaceOnUse"><stop offset="0%" stop-opacity="1" style="stop-color:rgb(26,109,255)"/><stop offset="100%" stop-opacity="1" style="stop-color:rgb(200,34,255)"/></linearGradient><rect x="103.333" y="59.166" width="12" height="2" transform="matrix(0,1,-1,0,169.5,-49.167)" id="Rectangle" fill="url(#_lgradient_57)"/></g><g id="left-bubble"><path d=" M 52.334 60.167 C 52.339 61.234 51.773 62.223 50.85 62.758 L 44.536 66.452 C 43.237 67.211 42.351 68.551 42.104 70.127 C 40.622 79.606 32.254 86.497 22.642 86.154 C 12.547 85.796 4.334 77.084 4.334 66.735 L 4.334 53.598 C 4.334 43.249 12.547 34.537 22.642 34.179 C 32.253 33.836 40.621 40.728 42.104 50.207 C 42.351 51.782 43.237 53.122 44.536 53.881 L 50.849 57.575 C 51.772 58.11 52.339 59.099 52.334 60.167 Z " id="left-bubble" fill="rgb(255,255,0)"/><linearGradient id="_lgradient_58" x1="0.49999040072657747" y1="-0.010416657958722125" x2="0.4999904007265773" y2="1.0156658176072415" gradientTransform="matrix(0,-52,48,0,4.334,86.166)" gradientUnits="userSpaceOnUse"><stop offset="0%" stop-opacity="1" style="stop-color:rgb(26,109,255)"/><stop offset="100%" stop-opacity="1" style="stop-color:rgb(200,34,255)"/></linearGradient><path d=" M 52.334 60.167 C 52.339 61.234 51.773 62.223 50.85 62.758 L 44.536 66.452 C 43.237 67.211 42.351 68.551 42.104 70.127 C 40.622 79.606 32.254 86.497 22.642 86.154 C 12.547 85.796 4.334 77.084 4.334 66.735 L 4.334 53.598 C 4.334 43.249 12.547 34.537 22.642 34.179 C 32.253 33.836 40.621 40.728 42.104 50.207 C 42.351 51.782 43.237 53.122 44.536 53.881 L 50.849 57.575 C 51.772 58.11 52.339 59.099 52.334 60.167 Z  M 6.334 66.735 C 6.334 76.02 13.682 83.835 22.712 84.156 C 31.314 84.462 38.801 78.298 40.127 69.817 C 40.468 67.644 41.706 65.789 43.525 64.725 L 49.838 61.031 C 50.286 60.77 50.334 60.34 50.334 60.167 C 50.334 59.994 50.286 59.564 49.838 59.303 L 43.525 55.609 C 41.706 54.546 40.467 52.69 40.127 50.518 C 38.8 42.037 31.314 35.872 22.712 36.178 C 13.682 36.499 6.334 44.313 6.334 53.599 L 6.334 66.735 Z " id="Compound Path" fill="url(#_lgradient_58)"/><linearGradient id="_lgradient_59" x1="0.5" y1="-0.08300000000000018" x2="0.4999999999999998" y2="1.0836666666666668" gradientTransform="matrix(0,-6,6,0,18.332,70.167)" gradientUnits="userSpaceOnUse"><stop offset="0%" stop-opacity="1" style="stop-color:rgb(109,199,255)"/><stop offset="100%" stop-opacity="1" style="stop-color:rgb(230,171,255)"/></linearGradient><path d=" M 21.332 70.167 C 19.676 70.167 18.332 68.823 18.332 67.167 C 18.332 65.511 19.676 64.167 21.332 64.167 C 22.987 64.167 24.332 65.511 24.332 67.167 C 24.332 68.823 22.987 70.167 21.332 70.167 Z " id="Ellipse" fill="url(#_lgradient_59)"/><linearGradient id="_lgradient_60" x1="0.5" y1="-0.08300000000000018" x2="0.4999999999999998" y2="1.0836666666666668" gradientTransform="matrix(0,-6,6,0,18.332,56.167)" gradientUnits="userSpaceOnUse"><stop offset="0%" stop-opacity="1" style="stop-color:rgb(109,199,255)"/><stop offset="100%" stop-opacity="1" style="stop-color:rgb(230,171,255)"/></linearGradient><path d=" M 21.332 56.167 C 19.676 56.167 18.332 54.823 18.332 53.167 C 18.332 51.511 19.676 50.167 21.332 50.167 C 22.987 50.167 24.332 51.511 24.332 53.167 C 24.332 54.823 22.987 56.167 21.332 56.167 Z " id="Ellipse" fill="url(#_lgradient_60)"/><linearGradient id="_lgradient_61" x1="0.5" y1="-0.05358666353125585" x2="0.4999999999999998" y2="1.0538725311476025" gradientTransform="matrix(0,-10,6.998,0,26.334,65.167)" gradientUnits="userSpaceOnUse"><stop offset="0%" stop-opacity="1" style="stop-color:rgb(109,199,255)"/><stop offset="100%" stop-opacity="1" style="stop-color:rgb(230,171,255)"/></linearGradient><path d=" M 26.334 56.167 L 26.334 64.167 C 26.334 64.719 26.78 65.167 27.332 65.167 L 28.332 65.167 C 31.093 65.167 33.332 62.928 33.332 60.167 C 33.332 57.405 31.093 55.167 28.332 55.167 L 27.332 55.167 C 27.067 55.167 26.813 55.273 26.625 55.46 C 26.438 55.648 26.333 55.902 26.334 56.167 L 26.334 56.167 Z " id="Path" fill="url(#_lgradient_61)"/><linearGradient id="_lgradient_62" x1="0.5" y1="-2.25" x2="0.4999999999999955" y2="22.376" gradientTransform="matrix(12,0,0,2,3.334,59.167)" gradientUnits="userSpaceOnUse"><stop offset="0%" stop-opacity="1" style="stop-color:rgb(26,109,255)"/><stop offset="100%" stop-opacity="1" style="stop-color:rgb(200,34,255)"/></linearGradient><rect x="3.334" y="59.167" width="12" height="2" transform="matrix(0,-1,1,0,-50.833,69.5)" id="Rectangle" fill="url(#_lgradient_62)"/></g></svg>